# xmcd
#
# Track frame offsets: 
#        150
#        19035
#        34465
#        56813
#        90470
#        101423
#        128285
#        147580
#        152335
#        160998
#        180655
#        198433
#
# Disc length: 2857 seconds
#
# Revision: 5
# Processed by: cddbd v1.5.2PL0 Copyright (c) Steve Scherf et al.
# Submitted via: ExactAudioCopy v0.99pb3
#
DISCID=970b270c
DTITLE=Knut Reiersrud - Tramp
DYEAR=1993
DGENRE=Folk
TTITLE0=Tramp
TTITLE1=You Ought To Treat A Stranger Right
TTITLE2=No Problem
TTITLE3=Jarabe
TTITLE4=Fåreslåtten
TTITLE5=Tenko Met (Sit And Be Quiet)
TTITLE6=Let Your Light Shine
TTITLE7=Wrestling Theme
TTITLE8=Bantari Fulado (Tradition Of The Fulas)
TTITLE9=Lamin
TTITLE10=Baby Please Don't Go - Tobakobe
TTITLE11=Fjording
EXTD=
EXTT0=
EXTT1=
EXTT2=
EXTT3=
EXTT4=
EXTT5=
EXTT6=
EXTT7=
EXTT8=
EXTT9=
EXTT10=
EXTT11=
PLAYORDER=
